<svg version="1" xmlns="http://www.w3.org/2000/svg" width="346.667" height="346.667" viewBox="0 0 260.000000 260.000000"><path d="M102.5 1.4C58.3 11.4 21.9 44.3 7.6 87 2.7 101.6 1 112.7 1 129.5s1.7 27.9 6.6 42.5c14.9 44.7 54 78.4 100.1 86.5 11.4 2 34.2 2 45.6 0 46.1-8.1 85.2-41.8 100.1-86.5 4.9-14.6 6.6-25.7 6.6-42.5s-1.7-27.9-6.6-42.5c-11.2-33.4-35.5-60.7-67.8-76.1-5.6-2.6-14.1-6-19.1-7.5C157.9.8 156.4.7 133 .4c-17.9-.2-26.1 0-30.5 1zM190 78.5c7.4 1.7 12 3.4 12 4.4 0 .4-.7 2.8-1.6 5.3l-1.5 4.6-5.5-1.9c-7.1-2.5-18.6-3.9-24.5-3-9.4 1.5-14.9 7.2-14.9 15.6 0 8.6 6.1 14.4 21.4 20.1 21.7 8.2 28.3 14.5 29.4 28 .9 12.2-4.3 21.1-15.6 26.6-6.1 2.9-7.8 3.2-18.4 3.6-12.2.5-23.1-.9-28-3.4-2.5-1.3-2.8-2-2.8-6.4 0-2.8.4-5 1-5 .5 0 4.5 1 8.7 2.2 5.8 1.7 10.5 2.2 18.3 2.3 9.3 0 11.1-.3 15.4-2.5 6.5-3.2 8.8-6.6 9.3-13.2.8-10-4.4-15-23.1-22.2-15.8-6.2-23.6-12.4-26.1-21-5-16.6 3.1-30.7 19.9-34.7 5.4-1.2 19.8-.9 26.6.6zm-93.6.5c12.1 1.8 19.5 6.3 23.9 14.5 3.2 5.9 3.2 21.2 0 27.1-2.6 4.9-9.3 10.9-14 12.6-2.1.8-3.2 1.7-2.8 2.5.2.8 6.3 11 13.5 22.8 7.1 11.9 13 21.7 13 22 0 .3-3.1.5-6.8.5h-6.8l-12.5-21.5L91.5 138H70v43H58V78h15.8c8.6 0 18.8.5 22.6 1z"/><path d="M70 108.5V128h10.5c12.8 0 19.6-1.4 23.7-4.8 8-6.8 9.1-21.1 2.1-28.4-4-4.2-10.8-5.8-24.5-5.8H70v19.5z"/></svg>